<svg xmlns="http://www.w3.org/2000/svg" xmlns:xlink="http://www.w3.org/1999/xlink" version="1.1" x="0px" y="0px" viewBox="0 0 30 37.5" xml:space="preserve"><g transform="translate(-330 -440)"><g xmlns="http://www.w3.org/2000/svg" xmlns:xlink="http://www.w3.org/1999/xlink"><path d="M336,442c-3,0-4,4.791-4,7v1v16h1v1h-1v1h8v-1h-1v-1h1v-16v-1C340,446.791,339,442,336,442z M339,465h-6v-15h6V465z     M333,449c0-2.026,0.906-6,3-6s3,3.974,3,6H333z"/><rect x="334" y="451" width="1" height="10"/><rect x="334" y="462" width="1" height="2"/><path d="M345,442c-3,0-4,4.791-4,7v1v16h1v1h-1v1h8v-1h-1v-1h1v-16v-1C349,446.791,348,442,345,442z M348,465h-6v-15h6V465z     M342,449c0-2.026,0.906-6,3-6s3,3.974,3,6H342z"/><rect x="343" y="451" width="1" height="10"/><rect x="343" y="462" width="1" height="2"/><path d="M354,442c-3,0-4,4.791-4,7v1v16h1v1h-1v1h8v-1h-1v-1h1v-16v-1C358,446.791,357,442,354,442z M357,465h-6v-15h6V465z     M351,449c0-2.026,0.906-6,3-6s3,3.974,3,6H351z"/><rect x="352" y="451" width="1" height="10"/><rect x="352" y="462" width="1" height="2"/></g></g><text x="0" y="45" fill="#000000" font-size="5px" font-weight="bold" font-family="'Helvetica Neue', Helvetica, Arial-Unicode, Arial, Sans-serif">Created by Hea Poh Lin</text><text x="0" y="50" fill="#000000" font-size="5px" font-weight="bold" font-family="'Helvetica Neue', Helvetica, Arial-Unicode, Arial, Sans-serif">from the Noun Project</text></svg>