<svg xmlns="http://www.w3.org/2000/svg" xmlns:xlink="http://www.w3.org/1999/xlink" version="1.1" x="0px" y="0px" viewBox="0 0 100 125" style="enable-background:new 0 0 100 100;" xml:space="preserve"><path d="M91,22.3V26h-4.5L91,22.3z M77,40h14v6H9V30h56.2C66.1,35.7,71.1,40,77,40z M20.4,34.6c-0.8-0.8-2-0.8-2.8,0l-4,4  c-0.8,0.8-0.8,2,0,2.8C14,41.8,14.5,42,15,42s1-0.2,1.4-0.6l4-4C21.2,36.6,21.2,35.4,20.4,34.6z M29.4,34.6c-0.8-0.8-2-0.8-2.8,0  l-4,4c-0.8,0.8-0.8,2,0,2.8C23,41.8,23.5,42,24,42s1-0.2,1.4-0.6l4-4C30.2,36.6,30.2,35.4,29.4,34.6z M38.4,34.6  c-0.8-0.8-2-0.8-2.8,0l-4,4c-0.8,0.8-0.8,2,0,2.8C32,41.8,32.5,42,33,42s1-0.2,1.4-0.6l4-4C39.2,36.6,39.2,35.4,38.4,34.6z M77,36  h14v-6H69.2C70.1,33.5,73.3,36,77,36z M22,23c0-1.7-1.3-3-3-3s-3,1.3-3,3v3h6V23z M49.9,48.3C49.2,53.8,44.6,58,39,58h-3.4  c-1,0-1.9-0.8-2-1.8c-0.1-1.2-0.1-2.2-0.1-3c0-1,0.1-1.9-0.2-3.2H16.1c0,0,0,0,0,0l0.3,0.3c2.7,3.2,3.8,7.5,3.1,12  c-0.8,4.9-3.1,8-5.4,11c-1.6,2.1-3.1,4.1-4.1,6.7h17.7l4.1-11.1c0.5-1.7,1-3.5,1.3-5.3c0.2-1,1-1.6,2-1.6h3c8.1,0,14.8-6,15.9-13.9  l-3.9,0C49.9,48.2,49.9,48.2,49.9,48.3z"/><text x="0" y="115" fill="#000000" font-size="5px" font-weight="bold" font-family="'Helvetica Neue', Helvetica, Arial-Unicode, Arial, Sans-serif">Created by IconMark</text><text x="0" y="120" fill="#000000" font-size="5px" font-weight="bold" font-family="'Helvetica Neue', Helvetica, Arial-Unicode, Arial, Sans-serif">from the Noun Project</text></svg>