<svg xmlns="http://www.w3.org/2000/svg" xmlns:xlink="http://www.w3.org/1999/xlink" version="1.1" x="0px" y="0px" viewBox="0 0 50 62.5" enable-background="new 0 0 50 50" xml:space="preserve"><g><path d="M36.1,45.5c0-0.9-1-1.7-2.7-2.3c-0.9,2.1-5,2.8-8.5,2.8c-3.5,0-7.6-0.8-8.5-2.8c-1.7,0.6-2.6,1.4-2.6,2.3   c0,1.9,5,3.5,11.1,3.5C31.1,49,36.1,47.4,36.1,45.5z"/><path d="M8,33.1c5.1,0,7.4-4,6.9-5L8.8,14.4c3.7,1.6,10.3-0.1,14.5-3.1c0,0,0.1,0,0.1,0V40c-3.2,0.2-5.7,1.1-5.7,2.2   c0,1.3,3.2,2.3,7.2,2.3c4,0,7.2-1,7.2-2.3c0-1.1-2.4-2-5.7-2.2V11.3c0,0,0,0,0.1,0c4.2,3,10.8,4.7,14.5,3.1l-5.9,13.6c0,0,0,0,0,0   c-0.4,1,1.8,5,7,5c5.1,0,7.3-4,6.9-5c0,0,0,0,0,0l-6.5-14.6c0,0,0,0,0,0c0,0,0,0,0,0c0-0.2-0.3-0.4-0.6-0.3   c-5.4,2.6-8.5-3.3-15.4-5.1V6.6C27.4,6.1,28,5.1,28,4c0-1.7-1.4-3-3-3s-3,1.4-3,3c0,1.1,0.6,2.1,1.5,2.6V8c-2.5,0.6-5.8,2.5-7.9,4   c-3.3,2.3-5.9,1.8-7.4,1.1c-0.3-0.1-0.5,0.1-0.6,0.3c0,0,0,0,0,0c0,0,0,0,0,0L1.1,28.1c0,0,0,0,0,0C0.7,29.1,2.9,33.1,8,33.1z    M47.6,27.6l-5.1,0L42.5,16L47.6,27.6z M41.5,27.6l-5.1,0L41.5,16L41.5,27.6z M13.6,27.6l-5.1,0L8.4,16L13.6,27.6z M7.4,16   l0.1,11.6l-5.1,0L7.4,16z"/></g><text x="0" y="65" fill="#000000" font-size="5px" font-weight="bold" font-family="'Helvetica Neue', Helvetica, Arial-Unicode, Arial, Sans-serif">Created by Vectors Market</text><text x="0" y="70" fill="#000000" font-size="5px" font-weight="bold" font-family="'Helvetica Neue', Helvetica, Arial-Unicode, Arial, Sans-serif">from the Noun Project</text></svg>