<svg xmlns="http://www.w3.org/2000/svg" data-name="Layer 1" viewBox="0 0 54 67.5" x="0px" y="0px"><title>gift, box, card, present, giftbox</title><path d="M13.715,32.549c-.926-.365-1.581-.651-1.581-1,0-.454.545-.837,1.189-.837a1.391,1.391,0,0,1,.949.343A1,1,0,0,0,15.64,29.6a3.26,3.26,0,0,0-1.3-.721V28a1,1,0,0,0-2,0v.868a2.886,2.886,0,0,0-2.2,2.683c0,1.735,1.645,2.385,2.846,2.859,1.374.541,2.02.879,2.02,1.631,0,.675-.768,1.245-1.677,1.245a1.791,1.791,0,0,1-1.531-.745,1,1,0,1,0-1.707,1.041,3.616,3.616,0,0,0,2.251,1.585V40a1,1,0,0,0,2,0v-.855A3.33,3.33,0,0,0,17,36.041C17,33.846,15.1,33.1,13.715,32.549Z"/><path d="M51,7H3a3,3,0,0,0-3,3V44a3,3,0,0,0,3,3H51a3,3,0,0,0,3-3V10A3,3,0,0,0,51,7ZM35,45H3a1,1,0,0,1-1-1V22H22a1,1,0,0,0,0-2H2V10A1,1,0,0,1,3,9H35v8h-.5a2.464,2.464,0,0,0-.835.154A11.756,11.756,0,0,0,29.93,14.6a3.948,3.948,0,0,0-5.151,2.179,11.82,11.82,0,0,0,0,8.44A3.941,3.941,0,0,0,29.93,27.4a11.756,11.756,0,0,0,3.735-2.553A2.464,2.464,0,0,0,34.5,25H35Zm2.5-26a.5.5,0,0,1,.335.134v0a.722.722,0,0,1,.072.091.507.507,0,0,1,.036.054A.463.463,0,0,1,38,19.5v3a.463.463,0,0,1-.056.219.507.507,0,0,1-.036.054.722.722,0,0,1-.072.091v0A.5.5,0,0,1,37.5,23h-3a.5.5,0,0,1-.335-.134v0a.59.59,0,0,1-.071-.091.4.4,0,0,1-.037-.054A.463.463,0,0,1,34,22.5v-3a.463.463,0,0,1,.056-.219.4.4,0,0,1,.037-.054.59.59,0,0,1,.071-.091v0A.5.5,0,0,1,34.5,19Zm-5.3,4.487a9.944,9.944,0,0,1-3.031,2.06,1.947,1.947,0,0,1-2.539-1.072,9.826,9.826,0,0,1,0-6.95,1.92,1.92,0,0,1,1.044-1.061,1.952,1.952,0,0,1,.761-.156,1.928,1.928,0,0,1,.734.145,9.944,9.944,0,0,1,3.031,2.06,2.479,2.479,0,0,0-.2.987v3A2.479,2.479,0,0,0,32.205,23.487ZM52,44a1,1,0,0,1-1,1H37V25h.5a2.464,2.464,0,0,0,.835-.154A11.756,11.756,0,0,0,42.07,27.4a3.948,3.948,0,0,0,5.151-2.179A10.96,10.96,0,0,0,47.956,22H52ZM39.8,18.513a9.944,9.944,0,0,1,3.031-2.06,1.947,1.947,0,0,1,2.539,1.072,9.826,9.826,0,0,1,0,6.95,1.947,1.947,0,0,1-2.539,1.072,9.944,9.944,0,0,1-3.031-2.06A2.479,2.479,0,0,0,40,22.5v-3A2.479,2.479,0,0,0,39.8,18.513ZM52,20H47.956a10.96,10.96,0,0,0-.735-3.22A3.948,3.948,0,0,0,42.07,14.6a11.756,11.756,0,0,0-3.735,2.553A2.464,2.464,0,0,0,37.5,17H37V9H51a1,1,0,0,1,1,1Z"/><text x="0" y="69" fill="#000000" font-size="5px" font-weight="bold" font-family="'Helvetica Neue', Helvetica, Arial-Unicode, Arial, Sans-serif">Created by Martins Ratkus</text><text x="0" y="74" fill="#000000" font-size="5px" font-weight="bold" font-family="'Helvetica Neue', Helvetica, Arial-Unicode, Arial, Sans-serif">from the Noun Project</text></svg>