<svg xmlns="http://www.w3.org/2000/svg" data-name="Layer 1" viewBox="0 0 512 640" x="0px" y="0px"><title>Artboard 5</title><path d="M35.731,176H45V425.037A35.762,35.762,0,0,0,80.71,461H431.29A35.762,35.762,0,0,0,467,425.037V176h9.269c8.836,0,15.731-7.535,15.731-16.371V66.963A15.741,15.741,0,0,0,476.269,51H35.731A15.741,15.741,0,0,0,20,66.963v92.666C20,168.465,26.9,176,35.731,176ZM435,425.037A3.735,3.735,0,0,1,431.29,429H80.71A3.735,3.735,0,0,1,77,425.037V176H435ZM52,83H460v61H52Z"/><path d="M372,230a16,16,0,0,0-16-16H156a16,16,0,0,0-16,16v60a16,16,0,0,0,16,16H356a16,16,0,0,0,16-16ZM172,246H340v28H172Z"/><text x="0" y="527" fill="#000000" font-size="5px" font-weight="bold" font-family="'Helvetica Neue', Helvetica, Arial-Unicode, Arial, Sans-serif">Created by Sam</text><text x="0" y="532" fill="#000000" font-size="5px" font-weight="bold" font-family="'Helvetica Neue', Helvetica, Arial-Unicode, Arial, Sans-serif">from the Noun Project</text></svg>