<svg xmlns="http://www.w3.org/2000/svg" xmlns:xlink="http://www.w3.org/1999/xlink" version="1.1" x="0px" y="0px" viewBox="0 0 100 125" style="enable-background:new 0 0 100 100;" xml:space="preserve"><path d="M24.87,51.84c1.33,1.33,3.1,2.07,4.99,2.07c1.88,0,3.65-0.73,4.99-2.07h0c2.75-2.75,2.75-7.22,0-9.97L30.97,38H88  c3.86,0,7-3.14,7-7s-3.14-7-7-7H30.97l3.87-3.87c2.75-2.75,2.75-7.22,0-9.97c-2.75-2.75-7.22-2.75-9.97,0L5.59,29.44  C5.16,29.87,4.97,30.44,5,31c-0.04,0.56,0.15,1.13,0.58,1.56L24.87,51.84z M27.7,12.99c1.19-1.19,3.12-1.19,4.31,0s1.19,3.13,0,4.31  l-7.29,7.29c-0.57,0.57-0.74,1.43-0.43,2.18C24.6,27.51,25.33,28,26.14,28H88c1.65,0,3,1.35,3,3s-1.35,3-3,3H26.14  c-0.81,0-1.54,0.49-1.85,1.23c-0.31,0.75-0.14,1.61,0.43,2.18l7.29,7.29c1.19,1.19,1.19,3.12,0,4.31c-1.19,1.19-3.13,1.19-4.31,0  L9.69,31L27.7,12.99z M75.13,48.16c-1.33-1.33-3.1-2.06-4.99-2.06c-1.88,0-3.65,0.73-4.99,2.06c-1.33,1.33-2.07,3.1-2.07,4.99  c0,1.88,0.73,3.65,2.07,4.99L69.03,62H12c-3.86,0-7,3.14-7,7s3.14,7,7,7h57.03l-3.87,3.87c-1.33,1.33-2.07,3.1-2.07,4.99  c0,1.88,0.73,3.65,2.07,4.99s3.1,2.07,4.99,2.07c1.88,0,3.65-0.73,4.99-2.07l19.29-19.29c0.43-0.43,0.62-1,0.58-1.56  c0.04-0.56-0.15-1.13-0.58-1.56L75.13,48.16z M72.3,87.01c-1.15,1.15-3.16,1.15-4.31,0c-0.58-0.58-0.89-1.34-0.89-2.16  c0-0.82,0.32-1.58,0.89-2.16l7.29-7.29c0.57-0.57,0.74-1.43,0.43-2.18C75.4,72.49,74.67,72,73.86,72H12c-1.65,0-3-1.35-3-3  s1.35-3,3-3h61.86c0.81,0,1.54-0.49,1.85-1.23c0.31-0.75,0.14-1.61-0.43-2.18l-7.29-7.29c-0.58-0.58-0.89-1.34-0.89-2.16  c0-0.81,0.32-1.58,0.89-2.16c1.15-1.15,3.16-1.15,4.31,0L90.31,69L72.3,87.01z"/><text x="0" y="115" fill="#000000" font-size="5px" font-weight="bold" font-family="'Helvetica Neue', Helvetica, Arial-Unicode, Arial, Sans-serif">Created by IconMark</text><text x="0" y="120" fill="#000000" font-size="5px" font-weight="bold" font-family="'Helvetica Neue', Helvetica, Arial-Unicode, Arial, Sans-serif">from the Noun Project</text></svg>